<svg width="187" height="80" viewBox="0 0 187 80" fill="none" xmlns="http://www.w3.org/2000/svg">
<g filter="url(#filter0_d_3_5)">
<rect x="16" y="8" width="155" height="48" rx="8" fill="#53DD6C"/>
</g>
<path d="M77.3413 39.2C76.768 39.2 76.1613 39.14 75.5213 39.02C74.8813 38.9 74.308 38.6933 73.8013 38.4C73.588 38.2667 73.4347 38.1133 73.3413 37.94C73.2613 37.7533 73.228 37.5733 73.2413 37.4C73.268 37.2133 73.3347 37.0533 73.4413 36.92C73.5613 36.7867 73.708 36.7 73.8813 36.66C74.068 36.62 74.268 36.6533 74.4813 36.76C75.0147 37.0133 75.5147 37.1933 75.9813 37.3C76.448 37.3933 76.908 37.44 77.3613 37.44C78.0013 37.44 78.4747 37.3333 78.7813 37.12C79.1013 36.8933 79.2613 36.6 79.2613 36.24C79.2613 35.9333 79.1547 35.7 78.9413 35.54C78.7413 35.3667 78.4347 35.24 78.0213 35.16L76.0213 34.78C75.1947 34.62 74.5613 34.32 74.1213 33.88C73.6947 33.4267 73.4813 32.8467 73.4813 32.14C73.4813 31.5 73.6547 30.9467 74.0013 30.48C74.3613 30.0133 74.8547 29.6533 75.4813 29.4C76.108 29.1467 76.828 29.02 77.6413 29.02C78.228 29.02 78.7747 29.0867 79.2813 29.22C79.8013 29.34 80.3013 29.5333 80.7813 29.8C80.9813 29.9067 81.1147 30.0467 81.1813 30.22C81.2613 30.3933 81.2813 30.5733 81.2413 30.76C81.2013 30.9333 81.1213 31.0933 81.0013 31.24C80.8813 31.3733 80.728 31.46 80.5413 31.5C80.368 31.5267 80.168 31.4867 79.9413 31.38C79.528 31.1667 79.128 31.0133 78.7413 30.92C78.368 30.8267 78.008 30.78 77.6613 30.78C77.008 30.78 76.5213 30.8933 76.2013 31.12C75.8947 31.3467 75.7413 31.6467 75.7413 32.02C75.7413 32.3 75.8347 32.5333 76.0213 32.72C76.208 32.9067 76.4947 33.0333 76.8813 33.1L78.8813 33.48C79.748 33.64 80.4013 33.9333 80.8413 34.36C81.2947 34.7867 81.5213 35.36 81.5213 36.08C81.5213 37.0533 81.1413 37.82 80.3813 38.38C79.6213 38.9267 78.608 39.2 77.3413 39.2ZM88.147 39.2C87.1203 39.2 86.227 38.9933 85.467 38.58C84.707 38.1533 84.1203 37.5533 83.707 36.78C83.2936 36.0067 83.087 35.1 83.087 34.06C83.087 33.2733 83.2003 32.5733 83.427 31.96C83.667 31.3333 84.007 30.8067 84.447 30.38C84.887 29.94 85.4203 29.6067 86.047 29.38C86.6736 29.14 87.3736 29.02 88.147 29.02C88.587 29.02 89.0603 29.08 89.567 29.2C90.087 29.32 90.5736 29.52 91.027 29.8C91.2403 29.9333 91.3803 30.0933 91.447 30.28C91.5136 30.4667 91.527 30.66 91.487 30.86C91.447 31.0467 91.3603 31.2133 91.227 31.36C91.107 31.4933 90.9536 31.58 90.767 31.62C90.5803 31.6467 90.3736 31.6 90.147 31.48C89.8536 31.3067 89.5536 31.18 89.247 31.1C88.9403 31.0067 88.647 30.96 88.367 30.96C87.927 30.96 87.5403 31.0333 87.207 31.18C86.8736 31.3133 86.587 31.5133 86.347 31.78C86.1203 32.0333 85.947 32.3533 85.827 32.74C85.707 33.1267 85.647 33.5733 85.647 34.08C85.647 35.0667 85.8803 35.8467 86.347 36.42C86.827 36.98 87.5003 37.26 88.367 37.26C88.647 37.26 88.9336 37.22 89.227 37.14C89.5336 37.06 89.8403 36.9333 90.147 36.76C90.3736 36.64 90.5736 36.6 90.747 36.64C90.9336 36.68 91.087 36.7733 91.207 36.92C91.327 37.0533 91.4003 37.22 91.427 37.42C91.4536 37.6067 91.427 37.7933 91.347 37.98C91.2803 38.1667 91.147 38.32 90.947 38.44C90.507 38.7067 90.0403 38.9 89.547 39.02C89.0536 39.14 88.587 39.2 88.147 39.2ZM96.322 39.2C95.6153 39.2 94.982 39.0667 94.422 38.8C93.8753 38.52 93.442 38.1467 93.122 37.68C92.8153 37.2133 92.662 36.6867 92.662 36.1C92.662 35.38 92.8486 34.8133 93.222 34.4C93.5953 33.9733 94.202 33.6667 95.042 33.48C95.882 33.2933 97.0086 33.2 98.422 33.2H99.422V34.64H98.442C97.6153 34.64 96.9553 34.68 96.462 34.76C95.9686 34.84 95.6153 34.98 95.402 35.18C95.202 35.3667 95.102 35.6333 95.102 35.98C95.102 36.42 95.2553 36.78 95.562 37.06C95.8686 37.34 96.2953 37.48 96.842 37.48C97.282 37.48 97.6686 37.38 98.002 37.18C98.3486 36.9667 98.622 36.68 98.822 36.32C99.022 35.96 99.122 35.5467 99.122 35.08V32.78C99.122 32.1133 98.9753 31.6333 98.682 31.34C98.3886 31.0467 97.8953 30.9 97.202 30.9C96.8153 30.9 96.3953 30.9467 95.942 31.04C95.502 31.1333 95.0353 31.2933 94.542 31.52C94.2886 31.64 94.062 31.6733 93.862 31.62C93.6753 31.5667 93.5286 31.46 93.422 31.3C93.3153 31.1267 93.262 30.94 93.262 30.74C93.262 30.54 93.3153 30.3467 93.422 30.16C93.5286 29.96 93.7086 29.8133 93.962 29.72C94.5753 29.4667 95.162 29.2867 95.722 29.18C96.2953 29.0733 96.8153 29.02 97.282 29.02C98.242 29.02 99.0286 29.1667 99.642 29.46C100.269 29.7533 100.735 30.2 101.042 30.8C101.349 31.3867 101.502 32.1467 101.502 33.08V37.88C101.502 38.2933 101.402 38.6133 101.202 38.84C101.002 39.0533 100.715 39.16 100.342 39.16C99.9686 39.16 99.6753 39.0533 99.462 38.84C99.262 38.6133 99.162 38.2933 99.162 37.88V36.92H99.322C99.2286 37.3867 99.042 37.7933 98.762 38.14C98.4953 38.4733 98.1553 38.7333 97.742 38.92C97.3286 39.1067 96.8553 39.2 96.322 39.2ZM105.379 39.16C104.979 39.16 104.673 39.0533 104.459 38.84C104.246 38.6133 104.139 38.2933 104.139 37.88V30.32C104.139 29.9067 104.246 29.5933 104.459 29.38C104.673 29.1667 104.973 29.06 105.359 29.06C105.746 29.06 106.046 29.1667 106.259 29.38C106.473 29.5933 106.579 29.9067 106.579 30.32V31.68L106.359 31.18C106.653 30.4733 107.106 29.94 107.719 29.58C108.346 29.2067 109.053 29.02 109.839 29.02C110.626 29.02 111.273 29.1667 111.779 29.46C112.286 29.7533 112.666 30.2 112.919 30.8C113.173 31.3867 113.299 32.1333 113.299 33.04V37.88C113.299 38.2933 113.193 38.6133 112.979 38.84C112.766 39.0533 112.459 39.16 112.059 39.16C111.659 39.16 111.346 39.0533 111.119 38.84C110.906 38.6133 110.799 38.2933 110.799 37.88V33.16C110.799 32.4 110.653 31.8467 110.359 31.5C110.079 31.1533 109.639 30.98 109.039 30.98C108.306 30.98 107.719 31.2133 107.279 31.68C106.853 32.1333 106.639 32.74 106.639 33.5V37.88C106.639 38.7333 106.219 39.16 105.379 39.16Z" fill="#F5F3F5"/>
<defs>
<filter id="filter0_d_3_5" x="0" y="0" width="187" height="80" filterUnits="userSpaceOnUse" color-interpolation-filters="sRGB">
<feFlood flood-opacity="0" result="BackgroundImageFix"/>
<feColorMatrix in="SourceAlpha" type="matrix" values="0 0 0 0 0 0 0 0 0 0 0 0 0 0 0 0 0 0 127 0" result="hardAlpha"/>
<feOffset dy="8"/>
<feGaussianBlur stdDeviation="8"/>
<feColorMatrix type="matrix" values="0 0 0 0 0 0 0 0 0 0.494118 0 0 0 0 1 0 0 0 0.16 0"/>
<feBlend mode="normal" in2="BackgroundImageFix" result="effect1_dropShadow_3_5"/>
<feBlend mode="normal" in="SourceGraphic" in2="effect1_dropShadow_3_5" result="shape"/>
</filter>
</defs>
</svg>
