<svg width="15" height="15" viewBox="0 0 15 15" fill="none" xmlns="http://www.w3.org/2000/svg">
<g clip-path="url(#clip0_9_16)">
<path d="M6.1875 2.64999C6.61771 2.54928 7.05817 2.49895 7.5 2.49999C11.875 2.49999 14.375 7.49998 14.375 7.49998C13.9956 8.20974 13.5432 8.87794 13.025 9.49373M8.825 8.82498C8.65334 9.0092 8.44634 9.15696 8.21635 9.25944C7.98635 9.36192 7.73806 9.41702 7.48631 9.42146C7.23455 9.42591 6.98448 9.37959 6.75101 9.28529C6.51754 9.19099 6.30545 9.05063 6.1274 8.87258C5.94936 8.69453 5.809 8.48245 5.71469 8.24898C5.62039 8.01551 5.57408 7.76544 5.57852 7.51368C5.58296 7.26192 5.63807 7.01364 5.74055 6.78364C5.84303 6.55364 5.99078 6.34664 6.175 6.17499M11.2125 11.2125C10.1441 12.0269 8.84319 12.478 7.5 12.5C3.125 12.5 0.625 7.49998 0.625 7.49998C1.40243 6.05117 2.48071 4.78536 3.7875 3.78749L11.2125 11.2125Z" stroke="#25282B" stroke-linecap="round" stroke-linejoin="round"/>
<path d="M0.625 0.625L14.375 14.375" stroke="#25282B" stroke-linecap="round" stroke-linejoin="round"/>
</g>
<defs>
<clipPath id="clip0_9_16">
<rect width="15" height="15" fill="white"/>
</clipPath>
</defs>
</svg>
