<svg width="16" height="15" viewBox="0 0 16 15" fill="none" xmlns="http://www.w3.org/2000/svg">
<path d="M0.666626 2.5V6.25H4.66663" stroke="#52575C" stroke-linecap="round" stroke-linejoin="round"/>
<path d="M15.3334 12.5V8.75H11.3334" stroke="#52575C" stroke-linecap="round" stroke-linejoin="round"/>
<path d="M13.66 5.625C13.3218 4.72924 12.7472 3.92838 11.9896 3.29714C11.2321 2.6659 10.3163 2.22485 9.32777 2.01516C8.33922 1.80547 7.31012 1.83396 6.3365 2.09798C5.36287 2.362 4.47646 2.85295 3.75996 3.525L0.666626 6.25M15.3333 8.75L12.24 11.475C11.5235 12.1471 10.637 12.638 9.66342 12.902C8.6898 13.166 7.6607 13.1945 6.67215 12.9848C5.6836 12.7751 4.76783 12.3341 4.01027 11.7029C3.25271 11.0716 2.67807 10.2708 2.33996 9.375" stroke="#52575C" stroke-linecap="round" stroke-linejoin="round"/>
</svg>
